<svg id="Capa_1" enable-background="new 0 0 512 512" height="512" viewBox="0 0 512 512" width="512" xmlns="http://www.w3.org/2000/svg"><g><g><path clip-rule="evenodd" d="m172.966 422.915h36.204v-183.813-159.54-26.973c-5.052 3.716-11.323 5.923-18.088 5.923-6.794 0-13.036-2.207-18.117-5.923v370.326z" fill="#f9f7f8" fill-rule="evenodd"/></g><g><path clip-rule="evenodd" d="m109.296 468.818h177.885v-44.858c0-6.213-5.081-11.294-11.294-11.294h-66.717-36.204-52.376c-6.213 0-11.294 5.081-11.294 11.294z" fill="#beb9dd" fill-rule="evenodd"/></g><g><path clip-rule="evenodd" d="m287.182 458.598h-177.886-25.403c-6.213 0-11.294 5.081-11.294 11.294v23.314c0 6.213 5.081 11.294 11.294 11.294h228.693c6.213 0 11.294-5.081 11.294-11.294v-23.314c0-6.213-5.081-11.294-11.294-11.294z" fill="#375e7d" fill-rule="evenodd"/></g><g><path clip-rule="evenodd" d="m250.106 423.96v34.637h25.375 11.7v-34.637c0-6.213-5.081-11.294-11.294-11.294h-37.104c6.214 0 11.323 5.081 11.323 11.294z" fill="#a7a2d3" fill-rule="evenodd"/></g><g><path clip-rule="evenodd" d="m287.182 458.598h-11.7c6.242 0 11.323 5.081 11.323 11.294v23.314c0 6.213-5.081 11.294-11.323 11.294h37.104c6.213 0 11.294-5.081 11.294-11.294v-23.314c0-6.213-5.081-11.294-11.294-11.294z" fill="#2b4d66" fill-rule="evenodd"/></g><g><path clip-rule="evenodd" d="m209.17 239.102h230.231l-46.859-74.645 46.859-74.646h-230.231z" fill="#eb5468" fill-rule="evenodd"/></g><g><path clip-rule="evenodd" d="m209.17 62.838c7.607-5.574 12.542-14.575 12.542-24.708 0-16.927-13.733-30.631-30.63-30.631-16.926 0-30.63 13.704-30.63 30.631 0 10.133 4.907 19.133 12.513 24.708 5.081 3.716 11.323 5.923 18.117 5.923 6.765 0 13.036-2.206 18.088-5.923z" fill="#ffd772" fill-rule="evenodd"/></g><g><path clip-rule="evenodd" d="m439.401 89.811h-125.19c6.474 19.83 10.074 41.809 10.074 64.949 0 30.979-6.445 59.868-17.594 84.343h132.71l-46.859-74.646z" fill="#e5384f" fill-rule="evenodd"/></g><g><path clip-rule="evenodd" d="m209.17 62.838c-5.052 3.716-11.323 5.923-18.088 5.923v21.049 149.292 173.564h18.088v-173.564-149.291z" fill="#dddaec" fill-rule="evenodd"/></g><g><path clip-rule="evenodd" d="m191.082 68.761c6.765 0 13.036-2.207 18.088-5.923 7.607-5.574 12.542-14.575 12.542-24.708 0-16.927-13.733-30.631-30.63-30.631-3.165 0-6.213.465-9.058 1.365 12.484 3.861 21.572 15.504 21.572 29.266 0 10.133-4.936 19.133-12.513 24.708-2.751 1.99-5.813 3.553-9.058 4.558 2.93.898 5.992 1.365 9.057 1.365z" fill="#fbba58" fill-rule="evenodd"/></g><path d="m401.398 164.457 44.356-70.659c1.45-2.311 1.531-5.229.211-7.617s-3.834-3.871-6.563-3.871h-222.732v-15.935c7.699-6.981 12.542-17.058 12.542-28.245 0-21.025-17.105-38.13-38.13-38.13s-38.13 17.105-38.13 38.13c0 11.174 4.831 21.24 12.514 28.22v338.815h-44.876c-10.363 0-18.794 8.431-18.794 18.794v27.137h-17.903c-10.363 0-18.794 8.431-18.794 18.794v23.314c0 10.363 8.431 18.794 18.794 18.794h228.692c10.363 0 18.794-8.431 18.794-18.794v-23.314c0-10.363-8.431-18.794-18.794-18.794h-17.903v-27.136c0-10.363-8.431-18.794-18.794-18.794h-59.218v-158.563h113.829c4.143 0 7.5-3.358 7.5-7.5s-3.357-7.5-7.5-7.5h-113.829v-134.292h209.168l-39.648 63.158c-1.53 2.438-1.53 5.537 0 7.976l39.648 63.158h-59.89c-4.143 0-7.5 3.358-7.5 7.5s3.357 7.5 7.5 7.5h73.453c2.729 0 5.243-1.482 6.563-3.871s1.239-5.306-.211-7.617zm-210.316-149.457c12.754 0 23.13 10.376 23.13 23.13 0 7.706-3.791 14.539-9.603 18.745-7.823 5.681-18.631 5.768-26.595.327-6.071-4.173-10.062-11.164-10.062-19.072 0-12.754 10.376-23.13 23.13-23.13zm88.6 408.96v27.137h-70.86c-4.143 0-7.5 3.358-7.5 7.5s3.357 7.5 7.5 7.5h103.764c2.057 0 3.794 1.737 3.794 3.794v23.314c0 2.057-1.737 3.794-3.794 3.794h-228.693c-2.057 0-3.794-1.737-3.794-3.794v-23.314c0-2.057 1.737-3.794 3.794-3.794h89.45c4.143 0 7.5-3.358 7.5-7.5s-3.357-7.5-7.5-7.5h-56.547v-27.137c0-2.057 1.737-3.794 3.794-3.794h155.298c2.056 0 3.794 1.738 3.794 3.794zm-99.216-18.794v-330.399c6.865 1.985 14.337 1.989 21.204.009v330.39z"/></g></svg>